<?xml version="1.0" encoding="UTF-8"?>
<svg width="1200pt" height="1200pt" version="1.1" viewBox="0 0 1200 1200" xmlns="http://www.w3.org/2000/svg">
 <path d="m1116 998.95c-2.4375-2.25-56.719-52.078-121.22-79.969 25.641-65.109 28.969-138.05 29.156-142.31 0.1875-4.4062-1.5-8.6719-4.5938-11.766s-7.4062-4.6875-11.766-4.5938c-3.3281 0.14062-76.828 3.3281-142.26 29.109-27.891-64.172-77.109-118.08-80.016-121.18-5.9531-6.4219-17.203-6.4219-23.156 0-2.9062 3.1406-52.125 57-80.016 121.18-65.438-25.781-138.94-29.016-142.26-29.109-4.2656-0.09375-8.6719 1.5-11.766 4.5938s-4.7812 7.4062-4.5938 11.766c0.14062 4.2656 3.4688 77.156 29.156 142.31-64.5 27.891-118.73 77.719-121.22 79.969-3.2344 3-5.0625 7.1719-5.0625 11.578s1.8281 8.5781 5.0625 11.578c4.3594 4.0312 107.91 98.953 200.21 98.953 69.703 0 119.48-52.734 142.13-82.641 22.641 29.906 72.375 82.641 142.13 82.641 92.297 0 195.84-94.922 200.21-98.953 3.2344-3 5.0625-7.1719 5.0625-11.578s-1.8281-8.5781-5.0625-11.578zm-124.97-205.78c-3.75 38.25-16.969 128.58-60.984 172.69-33.375 33.281-82.594 36.891-116.02 34.641 30.094-25.688 70.172-71.297 70.172-132.1 0-16.312-3.0469-32.906-7.9688-49.312 42.281-16.781 89.672-23.438 114.8-25.922zm-217.36-90c24.422 29.672 78.938 102.94 78.938 165.24 0 62.859-57.516 108.47-78.984 123.28-21.469-14.766-78.938-60.188-78.938-123.28 0-62.344 54.516-135.56 78.938-165.24zm-102.56 115.92c-4.875 16.406-7.9688 33-7.9688 49.312 0 60.797 40.078 106.36 70.172 132.1-33.422 2.25-82.641-1.3594-116.02-34.594-44.016-44.109-57.281-134.44-60.984-172.74 25.078 2.4844 72.469 9.1406 114.75 25.922zm-39.516 270.37c-62.297 0-135.56-54.516-165.24-78.938 19.453-16.031 57.75-44.859 99.469-62.766 8.1094 15.047 17.672 28.969 29.203 40.5 36.094 36 84.609 44.578 122.58 44.578 7.3594 0 14.203-0.375 20.578-0.84375-21.984 25.219-59.297 57.516-106.59 57.516zm284.21 0c-47.109 0-84.469-32.297-106.5-57.516 6.375 0.51562 13.172 0.84375 20.484 0.84375 38.016 0 86.531-8.5781 122.63-44.578 11.484-11.531 21.047-25.453 29.156-40.453 41.766 17.953 80.016 46.781 99.469 62.766-29.672 24.422-102.94 78.938-165.24 78.938z" fill="#00bac2"/>
 <path d="m963.14 473.68c0 88.266-45.797 169.74-104.67 238.13-24.609-37.406-48.469-63.328-50.062-65.062-17.531-18.938-51.938-18.938-69.469 0-2.0625 2.2031-42.609 46.266-73.125 103.59-61.875-18.938-121.87-21.469-125.39-21.609-12.609-0.32812-25.594 4.7344-34.734 13.875-9.3281 9.3281-14.391 22.125-13.875 35.203 0.14063 2.2031 1.5938 35.391 9.7969 77.531-105.47-75.797-264.79-217.26-264.79-381.61 0-104.53 84.938-189.47 189.47-189.47 77.531 0 144.47 46.875 173.68 113.67 29.203-66.797 96.141-113.67 173.68-113.67 104.53 0 189.47 84.938 189.47 189.47z" fill="#00bac2"/>
 <path d="m457.87 236.86v18.141c-10.406-1.5938-20.859-2.3906-31.594-2.3906-112.88 0-206.39 85.125-219.47 194.53-10.594-8.6719-17.391-21.938-17.391-36.609v-63.141h-63.141c-26.062 0-47.391-21.328-47.391-47.391v-63.141c0-26.062 21.328-47.391 47.391-47.391h63.141v-63.141c0-26.062 21.328-47.391 47.391-47.391h63.141c26.062 0 47.391 21.328 47.391 47.391v63.141h63.141c26.062 0 47.391 21.328 47.391 47.391z" fill="#00bac2"/>
 <path d="m460.74 1101.7c-1.4531 0-2.9062-0.1875-4.3594-0.60938-222.24-63.609-377.44-269.63-377.44-501 0-80.062 17.578-156.74 52.266-227.95 3.7969-7.8281 13.266-11.109 21.094-7.2656 7.8281 3.7969 11.109 13.266 7.2656 21.094-32.578 66.891-49.078 138.94-49.078 214.13 0 217.36 145.78 410.9 354.56 470.68 8.3906 2.3906 13.219 11.156 10.828 19.547-1.9688 6.9375-8.2969 11.438-15.188 11.438z" fill="#00bac2"/>
 <path d="m1050.1 845.68c-2.3906 0-4.875-0.5625-7.1719-1.7344-7.7812-3.9844-10.828-13.453-6.8906-21.234 35.438-69.422 53.391-144.32 53.391-222.71 0-269.9-219.56-489.47-489.47-489.47-75.188 0-147.24 16.5-214.13 49.078-7.875 3.7969-17.297 0.5625-21.094-7.2656-3.8438-7.8281-0.5625-17.297 7.2656-21.094 71.25-34.688 147.94-52.266 227.95-52.266 287.29 0 521.06 233.76 521.06 521.06 0 83.438-19.125 163.18-56.859 237.1-2.8125 5.4844-8.3438 8.625-14.062 8.625z" fill="#00bac2"/>
</svg>
